<?xml version="1.0" encoding="UTF-8"?>
<svg version="1.1" xmlns="http://www.w3.org/2000/svg" width="300" height="300">
<path d="M0 0 C3.55982702 3.10773435 6.98019114 6.34314805 10.38037109 9.62402344 C11.09708984 10.28917969 11.81380859 10.95433594 12.55224609 11.63964844 C38.39632089 36.24320764 53.55660432 73.50484168 54.66162109 108.81933594 C54.91893742 122.96101216 54.67913035 136.82647333 51.38037109 150.62402344 C51.1923291 151.41357422 51.00428711 152.203125 50.81054688 153.01660156 C41.21945479 191.56409337 16.06448117 224.79285439 -17.61962891 245.62402344 C-50.67924259 265.50351716 -91.87503496 272.64811304 -129.61962891 263.62402344 C-130.40917969 263.43598145 -131.19873047 263.24793945 -132.01220703 263.05419922 C-157.29527158 256.76346047 -179.4791947 244.12281814 -198.61962891 226.62402344 C-199.38702393 225.9245459 -199.38702393 225.9245459 -200.16992188 225.2109375 C-208.5042265 217.50838004 -215.2535517 208.99749717 -221.61962891 199.62402344 C-222.70050781 198.05201172 -222.70050781 198.05201172 -223.80322266 196.44824219 C-238.70604784 173.58562343 -245.80808881 146.16674916 -245.80493164 119.09716797 C-245.80710288 117.02387464 -245.8252746 114.95112836 -245.84423828 112.87792969 C-245.90013406 100.07979256 -244.64535751 87.63673817 -240.99462891 75.31152344 C-240.73665527 74.42980469 -240.47868164 73.54808594 -240.21289062 72.63964844 C-233.1112328 49.27749855 -220.33943869 29.34587662 -203.61962891 11.62402344 C-202.90806641 10.83640625 -202.19650391 10.04878906 -201.46337891 9.23730469 C-186.60974393 -6.55739962 -166.91679689 -18.15278511 -146.61962891 -25.37597656 C-145.98831055 -25.60414062 -145.35699219 -25.83230469 -144.70654297 -26.06738281 C-96.54224592 -43.19029187 -39.03165266 -33.15984239 0 0 Z " fill="#FDF000" transform="translate(245.61962890625,33.3759765625)"/>
<path d="M0 0 C3.55982702 3.10773435 6.98019114 6.34314805 10.38037109 9.62402344 C11.09708984 10.28917969 11.81380859 10.95433594 12.55224609 11.63964844 C38.39632089 36.24320764 53.55660432 73.50484168 54.66162109 108.81933594 C54.91893742 122.96101216 54.67913035 136.82647333 51.38037109 150.62402344 C51.1923291 151.41357422 51.00428711 152.203125 50.81054688 153.01660156 C41.21945479 191.56409337 16.06448117 224.79285439 -17.61962891 245.62402344 C-50.67924259 265.50351716 -91.87503496 272.64811304 -129.61962891 263.62402344 C-130.40917969 263.43598145 -131.19873047 263.24793945 -132.01220703 263.05419922 C-157.29527158 256.76346047 -179.4791947 244.12281814 -198.61962891 226.62402344 C-199.38702393 225.9245459 -199.38702393 225.9245459 -200.16992188 225.2109375 C-208.5042265 217.50838004 -215.2535517 208.99749717 -221.61962891 199.62402344 C-222.70050781 198.05201172 -222.70050781 198.05201172 -223.80322266 196.44824219 C-238.70604784 173.58562343 -245.80808881 146.16674916 -245.80493164 119.09716797 C-245.80710288 117.02387464 -245.8252746 114.95112836 -245.84423828 112.87792969 C-245.90013406 100.07979256 -244.64535751 87.63673817 -240.99462891 75.31152344 C-240.73665527 74.42980469 -240.47868164 73.54808594 -240.21289062 72.63964844 C-233.1112328 49.27749855 -220.33943869 29.34587662 -203.61962891 11.62402344 C-202.90806641 10.83640625 -202.19650391 10.04878906 -201.46337891 9.23730469 C-186.60974393 -6.55739962 -166.91679689 -18.15278511 -146.61962891 -25.37597656 C-145.98831055 -25.60414062 -145.35699219 -25.83230469 -144.70654297 -26.06738281 C-96.54224592 -43.19029187 -39.03165266 -33.15984239 0 0 Z M-201.24462891 25.37402344 C-217.10074574 43.55264563 -228.22598592 66.94121614 -232.61962891 90.62402344 C-232.78736816 91.47738281 -232.95510742 92.33074219 -233.12792969 93.20996094 C-239.35371529 126.94826648 -231.3160542 163.35701166 -212.61962891 192.06152344 C-208.84851562 197.44359773 -204.87669509 202.61795817 -200.61962891 207.62402344 C-199.80880859 208.58179688 -198.99798828 209.53957031 -198.16259766 210.52636719 C-177.29236808 234.54909372 -145.38912719 251.60218247 -113.61962891 254.62402344 C-110.96056581 254.74484449 -108.32570865 254.832807 -105.66650391 254.86230469 C-104.93249863 254.87205322 -104.19849335 254.88180176 -103.44224548 254.8918457 C-87.76908748 255.05734131 -72.79263018 255.04395262 -57.61962891 250.62402344 C-56.34603516 250.285 -55.07244141 249.94597656 -53.76025391 249.59667969 C-31.39807596 242.96822821 -11.74128732 229.18140235 4.38037109 212.62402344 C5.12287109 211.94919922 5.12287109 211.94919922 5.88037109 211.26074219 C18.59410858 199.40047319 28.74439388 181.99050749 34.38037109 165.62402344 C34.78900391 164.50898438 35.19763672 163.39394531 35.61865234 162.24511719 C40.69551967 147.88312379 42.89801817 134.11207176 42.77148438 118.91503906 C42.755376 116.62472032 42.77145809 114.33616504 42.79052734 112.04589844 C42.83219174 82.81333555 32.4828776 54.50722409 14.38037109 31.62402344 C13.65205078 30.66367188 12.92373047 29.70332031 12.17333984 28.71386719 C-6.16969454 5.21495287 -32.31836304 -9.98073797 -60.68212891 -18.06347656 C-61.38974365 -18.26618164 -62.0973584 -18.46888672 -62.82641602 -18.67773438 C-114.44157156 -32.78081485 -165.63600074 -12.28536342 -201.24462891 25.37402344 Z " fill="#030201" transform="translate(245.61962890625,33.3759765625)"/>
<path d="M0 0 C5.31565324 4.94637568 9.28213628 10.27005174 12 17 C12.5878125 18.4540625 12.5878125 18.4540625 13.1875 19.9375 C14.25301865 23.95368569 14.70098809 27.86250969 15 32 C15.09861328 32.98033203 15.09861328 32.98033203 15.19921875 33.98046875 C15.81496462 44.95773134 12.71447277 57.38502667 5.85546875 65.984375 C0.15090102 72.181337 -5.16840172 76.36634777 -13.8125 77.5 C-20.24272156 77.17662329 -25.60458171 74.24910129 -30.23828125 69.8984375 C-40.41228866 58.13414268 -42.78899331 44.29563751 -42.17919922 29.27832031 C-41.26667836 17.6766246 -35.57018722 7.66806225 -27 0 C-26.360625 -0.5775 -25.72125 -1.155 -25.0625 -1.75 C-17.59438966 -6.27612748 -6.82014177 -5.01757965 0 0 Z " fill="#030301" transform="translate(112,69)"/>
<path d="M0 0 C9.62148541 5.32723349 14.90663815 13.5272086 18.29296875 23.8203125 C21.72600355 37.73458468 20.21851265 53.50384929 12.921875 65.78515625 C8.74123009 71.95910442 4.37090322 76.62537485 -2.828125 78.97265625 C-9.91674393 79.83490823 -16.26920745 79.92426108 -22.125 75.5078125 C-30.65417216 67.81982017 -35.92634979 57.37242529 -37.03271484 45.84008789 C-37.68215409 31.22770474 -36.14650241 18.81675402 -26.828125 6.97265625 C-19.36460124 -0.80249689 -10.63104385 -3.86182947 0 0 Z " fill="#020201" transform="translate(211.828125,66.02734375)"/>
<path d="M0 0 C0.57475136 4.88538654 -1.35653762 7.03480643 -4 11 C-4.56898076 13.38215769 -4.56898076 13.38215769 -4 16 C-2.45698547 18.13694082 -1.00745922 19.88110734 0.8125 21.75 C1.31168945 22.27440674 1.81087891 22.79881348 2.32519531 23.33911133 C21.29700879 42.90416662 50.15614637 58.68907687 77.81259155 59.24082947 C79.06938217 59.25697044 79.06938217 59.25697044 80.3515625 59.2734375 C81.23993805 59.28601089 82.1283136 59.29858429 83.04360962 59.3115387 C109.4815117 60.00218989 109.4815117 60.00218989 135 54 C135.66660645 53.74299316 136.33321289 53.48598633 137.02001953 53.22119141 C141.5049552 51.42302251 145.74816984 49.28700363 150 47 C150.64775391 46.66484375 151.29550781 46.3296875 151.96289062 45.984375 C165.37411672 39.03904438 182.08653545 29.38904027 190 16 C189.82876929 10.46747656 188.40254322 8.19646997 185 4 C185.25 1.6875 185.25 1.6875 186 0 C190.79244136 0.29952759 193.45936968 2.73603829 197.09375 5.5703125 C200.69283442 8.26962581 203.80307034 9.00503915 208.1875 9.375 C212 10 212 10 213.5 12.0625 C213.665 12.701875 213.83 13.34125 214 14 C210.7282136 17.2717864 206.42888619 16.35239436 201.96875 16.4609375 C200.9890625 16.63882813 200.009375 16.81671875 199 17 C197.74571699 18.7568298 197.74571699 18.7568298 197 21 C194.16527898 24.48230815 191.07134752 27.72609428 188 31 C187.22140625 31.84433594 186.4428125 32.68867188 185.640625 33.55859375 C163.27532781 56.98368443 129.06233747 68.58849377 97.26269531 69.33178711 C60.75058968 69.76552152 27.46871058 59.77450768 1 34 C0.07445313 33.1028125 -0.85109375 32.205625 -1.8046875 31.28125 C-5.35463167 27.78397562 -8.84593063 24.29962576 -12 20.4375 C-14.19129153 17.76686345 -14.93583983 17.11324677 -18.3125 16.75390625 C-20.10398401 16.62631509 -21.89565438 16.50131431 -23.6875 16.37890625 C-26 16 -26 16 -28 14 C-27.625 11.875 -27.625 11.875 -27 10 C-26.39414062 9.91363281 -25.78828125 9.82726562 -25.1640625 9.73828125 C-18.2746966 8.58298758 -10.38094625 6.65623958 -5.46484375 1.33984375 C-4 0 -4 0 0 0 Z " fill="#0A0905" transform="translate(57,165)"/>
<path d="M0 0 C4.875 0.875 4.875 0.875 6 2 C5.71269945 4.33944736 5.38063221 6.6739143 5 9 C3.68 9.33 2.36 9.66 1 10 C-1.56687367 6.1496895 -0.83288724 4.41430237 0 0 Z " fill="#E3E4E4" transform="translate(195,84)"/>
<path d="M0 0 C1.67542976 0.28604898 3.34385343 0.61781233 5 1 C5.125 7.75 5.125 7.75 4 10 C2.68 10 1.36 10 0 10 C-1.49106457 7.01787087 -1.11941467 4.28390342 -1 1 C-0.67 0.67 -0.34 0.34 0 0 Z " fill="#EBEBEC" transform="translate(91,84)"/>
<path d="M0 0 C1.21236328 0.01353516 1.21236328 0.01353516 2.44921875 0.02734375 C3.37154297 0.04474609 3.37154297 0.04474609 4.3125 0.0625 C4.3125 0.3925 4.3125 0.7225 4.3125 1.0625 C3.755625 1.1140625 3.19875 1.165625 2.625 1.21875 C-4.55866115 2.28659152 -8.06201485 5.64299424 -12.6875 11.0625 C-13.3475 10.7325 -14.0075 10.4025 -14.6875 10.0625 C-13.59203883 8.57687458 -12.48581177 7.09918291 -11.375 5.625 C-10.76011719 4.80128906 -10.14523438 3.97757813 -9.51171875 3.12890625 C-6.68025985 -0.07846368 -4.04898106 -0.05868088 0 0 Z " fill="#E8E10F" transform="translate(263.6875,180.9375)"/>
</svg>
